<?xml version="1.0" encoding="UTF-8"?>
<svg id="Laag_1" data-name="Laag 1" xmlns="http://www.w3.org/2000/svg" viewBox="0 0 1687.9 436.9">
  <g>
    <g>
      <path d="M221.46,161.01l-100.73,100.73c-7.81,7.81-7.81,20.47,0,28.28l40.28,40.28,60.45-60.45v-108.85Z" style="fill: gray;"/>
      <path d="M146.87,5.86l-40.28,40.28,114.87,114.87V52.17S175.15,5.86,175.15,5.86c-7.81-7.81-20.47-7.81-28.28,0Z" style="fill: gray;"/>
      <path d="M221.46,390.76l40.28,40.28c7.81,7.81,20.47,7.81,28.28,0l46.31-46.31v-108.85l-114.87,114.87Z" style="fill: gray;"/>
    </g>
    <g>
      <path d="M46.14,215.44l60.45-60.45V46.14L5.86,146.87c-7.81,7.81-7.81,20.47,0,28.28l40.28,40.28Z" style="fill: #1e1e1e;"/>
      <path d="M261.74,120.73l-40.28,40.28,114.87,114.87v-108.85l-46.31-46.31c-7.81-7.81-20.47-7.81-28.28,0Z" style="fill: #1e1e1e;"/>
    </g>
  </g>
  <g>
    <g>
      <path d="M564.08,268.4c-21.07,0-38.97-3.74-53.71-11.22-14.75-7.48-27.1-17.25-37.08-29.31l35.25-33.63c7.98,9.09,16.35,16.02,25.11,20.79,8.76,4.77,19.12,7.15,31.1,7.15,9.75,0,17.68-2.54,23.78-7.61,6.1-5.08,9.15-11.92,9.15-20.53v-.67c0-9.49-3.99-16.77-11.97-21.85-7.98-5.08-19.18-7.62-33.59-7.62h-21.28l-7.98-32.45,55.54-55.62h-91.46V31.61h137.61c11.05,0,20,8.95,20,20h0c0,11.86-4.87,23.2-13.47,31.37l-45.7,43.41c7.98,1.33,15.71,3.44,23.19,6.32,7.47,2.88,14.17,6.88,20.08,11.97,5.91,5.1,10.65,11.47,14.23,19.12,3.57,7.65,5.36,16.91,5.36,27.77v.67c0,11.09-1.95,21.23-5.86,30.43-3.91,9.2-9.48,17.24-16.74,24.11-7.25,6.88-16.11,12.2-26.56,15.96-10.46,3.77-22.12,5.65-34.98,5.65Z" style="fill: #1e1e1e;"/>
      <path d="M782.57,267.74c-13.53,0-24.67-2.66-33.42-7.98-8.76-5.32-16.13-11.53-22.12-18.62v23.28h-50.55V31.61h50.55v80.15c6.2-8.42,13.69-15.35,22.45-20.79,8.76-5.43,19.79-8.15,33.09-8.15,10.42,0,20.5,2,30.26,5.99,9.75,3.99,18.4,9.93,25.94,17.79,7.53,7.87,13.58,17.52,18.13,28.93,4.54,11.42,6.82,24.56,6.82,39.41v.67c0,14.86-2.28,27.99-6.82,39.41-4.55,11.42-10.53,21.07-17.96,28.93-7.43,7.87-16.02,13.8-25.77,17.79-9.76,3.99-19.95,5.99-30.6,5.99ZM769.6,224.83c5.99,0,11.58-1.16,16.79-3.49,5.21-2.33,9.81-5.65,13.8-9.98s7.15-9.48,9.48-15.46c2.33-5.99,3.49-12.75,3.49-20.29v-.67c0-7.32-1.16-14.02-3.49-20.12-2.33-6.1-5.49-11.31-9.48-15.63s-8.59-7.65-13.8-9.98c-5.21-2.33-10.81-3.49-16.79-3.49s-11.59,1.16-16.79,3.49c-5.21,2.33-9.76,5.65-13.64,9.98-3.88,4.32-6.98,9.54-9.31,15.63-2.33,6.1-3.49,12.8-3.49,20.12v.67c0,7.32,1.16,14.02,3.49,20.12,2.33,6.1,5.43,11.31,9.31,15.63,3.88,4.32,8.42,7.65,13.64,9.98,5.21,2.33,10.81,3.49,16.79,3.49Z" style="fill: #1e1e1e;"/>
      <path d="M887.66,86.15h50.55v25.48c2.88-3.79,6.04-7.43,9.48-10.89,3.44-3.46,7.26-6.53,11.47-9.21,4.21-2.68,8.92-4.8,14.13-6.37,5.21-1.56,11.03-2.35,17.46-2.35,11.75,0,21.89,2.46,30.43,7.37,8.53,4.92,15.13,11.95,19.79,21.1,7.76-9.37,16.41-16.47,25.94-21.27,9.53-4.8,20.4-7.2,32.59-7.2,18.84,0,33.59,5.54,44.23,16.63,10.64,11.09,15.96,27.38,15.96,48.89v116.07h-50.55v-99.19c0-11.94-2.55-20.96-7.65-27.04-5.1-6.08-12.42-9.12-21.95-9.12s-17.02,3.04-22.45,9.12c-5.44,6.08-8.15,15.1-8.15,27.04v99.19h-50.55v-99.19c0-11.94-2.55-20.96-7.65-27.04-5.1-6.08-12.42-9.12-21.95-9.12s-17.02,3.04-22.45,9.12c-5.44,6.08-8.15,15.1-8.15,27.04v99.19h-50.55V86.15Z" style="fill: #1e1e1e;"/>
    </g>
    <g>
      <path d="M493.63,337.96h7.08v62.78h-7.08v-62.78Z" style="fill: #1e1e1e;"/>
      <path d="M517.93,354.37h6.91v8.07c1.55-2.51,3.59-4.65,6.1-6.41,2.51-1.76,5.77-2.65,9.78-2.65,2.81,0,5.31.45,7.49,1.34,2.18.9,4.04,2.17,5.56,3.81,1.52,1.65,2.69,3.6,3.5,5.87.81,2.27,1.21,4.78,1.21,7.53v28.79h-6.91v-27.03c0-4.29-1.11-7.7-3.32-10.2-2.21-2.5-5.38-3.76-9.51-3.76-1.97,0-3.81.34-5.52,1.03-1.7.69-3.18,1.67-4.44,2.95-1.26,1.28-2.23,2.82-2.91,4.61-.69,1.79-1.03,3.76-1.03,5.91v26.49h-6.91v-46.37Z" style="fill: #1e1e1e;"/>
      <path d="M593.71,415.27c-3.89,0-7.59-.54-11.12-1.61-3.53-1.08-6.85-2.69-9.96-4.84l3.14-5.38c2.69,1.91,5.5,3.38,8.43,4.39,2.93,1.02,6.07,1.52,9.42,1.52,5.14,0,9.24-1.39,12.29-4.17,3.05-2.78,4.57-6.89,4.57-12.33v-5.47c-2.03,2.69-4.52,4.99-7.44,6.91-2.93,1.91-6.52,2.87-10.76,2.87-2.81,0-5.52-.51-8.12-1.53-2.6-1.02-4.92-2.47-6.95-4.35-2.03-1.88-3.66-4.15-4.89-6.82-1.23-2.66-1.84-5.66-1.84-9.01v-.18c0-3.41.61-6.46,1.84-9.15,1.22-2.69,2.85-4.98,4.89-6.86,2.03-1.88,4.36-3.33,7-4.35,2.63-1.02,5.32-1.52,8.07-1.52,2.15,0,4.14.25,5.96.76,1.82.51,3.47,1.18,4.93,2.02,1.46.84,2.79,1.83,3.99,2.96,1.2,1.14,2.27,2.33,3.23,3.59v-8.34h6.91v38.29c0,3.59-.51,6.74-1.52,9.46-1.02,2.72-2.48,5.04-4.39,6.95-2.09,2.09-4.63,3.65-7.62,4.66-2.99,1.02-6.34,1.52-10.04,1.52ZM593.62,391.05c2.21,0,4.33-.37,6.37-1.12,2.03-.75,3.84-1.82,5.43-3.23,1.58-1.4,2.85-3.06,3.81-4.98.96-1.91,1.44-4.04,1.44-6.37v-.18c0-2.39-.48-4.54-1.44-6.46-.96-1.91-2.23-3.56-3.81-4.93-1.58-1.37-3.39-2.44-5.43-3.18-2.03-.75-4.16-1.12-6.37-1.12s-4.29.37-6.23,1.12c-1.94.75-3.65,1.79-5.11,3.14-1.47,1.35-2.62,2.98-3.45,4.89-.84,1.91-1.26,4.07-1.26,6.46v.18c0,2.33.43,4.47,1.3,6.41.87,1.94,2.03,3.6,3.5,4.98,1.46,1.38,3.17,2.45,5.11,3.23,1.94.78,3.99,1.17,6.14,1.17Z" style="fill: #1e1e1e;"/>
      <path d="M636.85,380.38c.24,2.45.84,4.63,1.79,6.55.96,1.91,2.18,3.53,3.68,4.84,1.49,1.32,3.17,2.32,5.02,3,1.85.69,3.8,1.03,5.83,1.03,3.23,0,5.99-.6,8.3-1.79,2.3-1.2,4.41-2.78,6.32-4.75l4.3,3.86c-2.33,2.63-4.99,4.74-7.98,6.32-2.99,1.58-6.7,2.38-11.12,2.38-3.17,0-6.16-.58-8.97-1.75-2.81-1.17-5.26-2.81-7.35-4.93-2.09-2.12-3.75-4.68-4.98-7.67-1.23-2.99-1.84-6.28-1.84-9.87,0-3.35.55-6.5,1.66-9.46,1.11-2.96,2.65-5.53,4.62-7.71s4.32-3.9,7.04-5.16c2.72-1.26,5.69-1.88,8.92-1.88,3.41,0,6.46.64,9.15,1.93,2.69,1.29,4.96,3.04,6.82,5.25,1.85,2.21,3.26,4.81,4.21,7.8.96,2.99,1.44,6.19,1.44,9.6v1.03c0,.39-.03.85-.09,1.39h-36.77ZM666.71,374.73c-.18-2.08-.63-4.06-1.35-5.93-.72-1.87-1.69-3.52-2.91-4.95-1.23-1.43-2.72-2.56-4.48-3.39-1.76-.83-3.78-1.25-6.05-1.25-1.97,0-3.83.39-5.56,1.16-1.73.77-3.26,1.86-4.57,3.26-1.32,1.4-2.41,3.05-3.27,4.95-.87,1.9-1.42,3.95-1.66,6.15h29.86Z" style="fill: #1e1e1e;"/>
      <path d="M685.81,354.37h6.91v8.07c1.55-2.51,3.59-4.65,6.1-6.41,2.51-1.76,5.77-2.65,9.78-2.65,2.81,0,5.31.45,7.49,1.34,2.18.9,4.04,2.17,5.56,3.81,1.52,1.65,2.69,3.6,3.5,5.87.81,2.27,1.21,4.78,1.21,7.53v28.79h-6.91v-27.03c0-4.29-1.11-7.7-3.32-10.2-2.21-2.5-5.38-3.76-9.51-3.76-1.97,0-3.81.34-5.52,1.03-1.7.69-3.18,1.67-4.44,2.95-1.26,1.28-2.23,2.82-2.91,4.61-.69,1.79-1.03,3.76-1.03,5.91v26.49h-6.91v-46.37Z" style="fill: #1e1e1e;"/>
      <path d="M741.24,336.62h7.89v7.62h-7.89v-7.62ZM741.69,354.37h6.91v46.37h-6.91v-46.37Z" style="fill: #1e1e1e;"/>
      <path d="M768.77,380.38c.24,2.45.84,4.63,1.79,6.55.96,1.91,2.18,3.53,3.68,4.84,1.49,1.32,3.17,2.32,5.02,3,1.85.69,3.8,1.03,5.83,1.03,3.23,0,5.99-.6,8.3-1.79,2.3-1.2,4.41-2.78,6.32-4.75l4.3,3.86c-2.33,2.63-4.99,4.74-7.98,6.32-2.99,1.58-6.7,2.38-11.12,2.38-3.17,0-6.16-.58-8.97-1.75-2.81-1.17-5.26-2.81-7.35-4.93-2.09-2.12-3.75-4.68-4.98-7.67-1.23-2.99-1.84-6.28-1.84-9.87,0-3.35.55-6.5,1.66-9.46,1.11-2.96,2.65-5.53,4.62-7.71s4.32-3.9,7.04-5.16c2.72-1.26,5.69-1.88,8.92-1.88,3.41,0,6.46.64,9.15,1.93,2.69,1.29,4.96,3.04,6.82,5.25,1.85,2.21,3.26,4.81,4.21,7.8.96,2.99,1.44,6.19,1.44,9.6v1.03c0,.39-.03.85-.09,1.39h-36.77ZM798.63,374.73c-.18-2.08-.63-4.06-1.35-5.93-.72-1.87-1.69-3.52-2.91-4.95-1.23-1.43-2.72-2.56-4.48-3.39-1.76-.83-3.78-1.25-6.05-1.25-1.97,0-3.83.39-5.56,1.16-1.73.77-3.26,1.86-4.57,3.26-1.32,1.4-2.41,3.05-3.27,4.95-.87,1.9-1.42,3.95-1.66,6.15h29.86Z" style="fill: #1e1e1e;"/>
      <path d="M834.77,401.73c-2.81,0-5.31-.45-7.49-1.34-2.18-.9-4.04-2.17-5.56-3.81-1.52-1.64-2.69-3.6-3.5-5.87-.81-2.27-1.21-4.78-1.21-7.53v-28.79h6.91v27.02c0,4.3,1.11,7.7,3.32,10.2,2.21,2.5,5.38,3.76,9.51,3.76,1.97,0,3.81-.34,5.52-1.03,1.7-.69,3.17-1.67,4.39-2.95,1.22-1.28,2.2-2.82,2.91-4.61.72-1.79,1.08-3.76,1.08-5.91v-26.49h6.82v46.37h-6.82v-8.07c-1.56,2.51-3.59,4.65-6.1,6.41-2.51,1.76-5.77,2.65-9.78,2.65Z" style="fill: #1e1e1e;"/>
      <path d="M872.98,354.37h6.91v12.11c.84-1.91,1.88-3.68,3.14-5.29,1.26-1.61,2.69-3,4.3-4.17s3.38-2.05,5.29-2.65c1.91-.6,3.98-.87,6.19-.81v7.44h-.54c-2.51,0-4.89.45-7.13,1.35-2.24.9-4.2,2.24-5.87,4.04-1.67,1.79-2.99,4.02-3.95,6.68-.96,2.66-1.44,5.73-1.44,9.19v18.47h-6.91v-46.37Z" style="fill: #1e1e1e;"/>
      <path d="M924.63,401.64c-3.35,0-6.73-.61-10.13-1.84-3.41-1.22-6.43-2.88-9.06-4.98l3.5-4.93c2.51,1.91,5.13,3.38,7.85,4.39,2.72,1.02,5.46,1.52,8.21,1.52s5.11-.66,6.91-1.97c1.79-1.31,2.69-3.11,2.69-5.38v-.18c0-1.13-.31-2.12-.94-2.96-.63-.84-1.48-1.57-2.56-2.2-1.08-.63-2.32-1.18-3.72-1.66-1.41-.48-2.86-.93-4.35-1.35-1.79-.54-3.6-1.12-5.43-1.75-1.82-.63-3.47-1.42-4.93-2.38-1.47-.96-2.66-2.15-3.59-3.59-.93-1.43-1.39-3.23-1.39-5.38v-.18c0-1.97.39-3.78,1.17-5.43.78-1.64,1.87-3.05,3.27-4.21,1.4-1.17,3.08-2.06,5.02-2.69,1.94-.63,4.05-.94,6.32-.94,2.87,0,5.77.46,8.7,1.39,2.93.93,5.59,2.17,7.98,3.72l-3.14,5.2c-2.15-1.37-4.41-2.47-6.77-3.27-2.36-.81-4.68-1.21-6.95-1.21-2.75,0-4.93.64-6.55,1.93-1.61,1.29-2.42,2.88-2.42,4.8v.18c0,1.08.33,2.02.99,2.82.66.81,1.54,1.51,2.65,2.11,1.11.6,2.38,1.14,3.81,1.61,1.44.48,2.93.96,4.48,1.43,1.79.54,3.57,1.14,5.34,1.79,1.76.66,3.36,1.5,4.8,2.51,1.44,1.02,2.59,2.24,3.45,3.68.87,1.44,1.3,3.2,1.3,5.29v.18c0,2.21-.43,4.17-1.3,5.87-.87,1.7-2.03,3.15-3.5,4.35-1.47,1.2-3.2,2.11-5.2,2.74-2,.63-4.17.94-6.5.94Z" style="fill: #1e1e1e;"/>
      <path d="M976.29,354.37h7.62l15.6,38.47,15.69-38.47h7.44l-20.18,46.72h-6.1l-20.09-46.72Z" style="fill: #1e1e1e;"/>
      <path d="M1047.32,401.73c-2.15,0-4.27-.3-6.37-.9-2.09-.6-3.95-1.51-5.56-2.74-1.61-1.22-2.92-2.74-3.9-4.53-.99-1.79-1.48-3.89-1.48-6.28v-.18c0-2.51.48-4.71,1.44-6.59.96-1.88,2.32-3.45,4.08-4.71,1.76-1.26,3.86-2.21,6.28-2.87,2.42-.66,5.1-.99,8.03-.99s5.57.18,7.76.54c2.18.36,4.32.84,6.41,1.44v-1.43c0-4.1-1.2-7.2-3.59-9.31-2.39-2.11-5.77-3.16-10.13-3.16-2.75,0-5.25.3-7.49.9s-4.44,1.41-6.59,2.42l-2.06-5.68c2.57-1.21,5.17-2.18,7.8-2.91,2.63-.73,5.65-1.09,9.06-1.09,6.58,0,11.57,1.7,14.98,5.11,3.23,3.23,4.84,7.77,4.84,13.63v28.34h-6.82v-6.91c-1.61,2.09-3.78,3.93-6.5,5.52-2.72,1.58-6.11,2.38-10.18,2.38ZM1048.71,396.08c2.15,0,4.14-.3,5.99-.89,1.85-.59,3.47-1.44,4.87-2.54,1.4-1.1,2.5-2.41,3.31-3.93.8-1.52,1.21-3.2,1.21-5.04v-4.29c-1.73-.47-3.69-.92-5.9-1.34-2.21-.42-4.74-.62-7.6-.62-4.29,0-7.61.85-9.97,2.54-2.35,1.7-3.53,3.94-3.53,6.74v.18c0,1.43.31,2.72.94,3.88.62,1.16,1.47,2.13,2.55,2.9,1.07.77,2.31,1.37,3.71,1.79,1.4.42,2.87.62,4.42.62Z" style="fill: #1e1e1e;"/>
      <path d="M1085.43,354.37h6.91v8.07c1.55-2.51,3.59-4.65,6.1-6.41,2.51-1.76,5.77-2.65,9.78-2.65,2.81,0,5.31.45,7.49,1.34,2.18.9,4.04,2.17,5.56,3.81,1.52,1.65,2.69,3.6,3.5,5.87.81,2.27,1.21,4.78,1.21,7.53v28.79h-6.91v-27.03c0-4.29-1.11-7.7-3.32-10.2-2.21-2.5-5.38-3.76-9.51-3.76-1.97,0-3.81.34-5.52,1.03-1.7.69-3.18,1.67-4.44,2.95-1.26,1.28-2.23,2.82-2.91,4.61-.69,1.79-1.03,3.76-1.03,5.91v26.49h-6.91v-46.37Z" style="fill: #1e1e1e;"/>
      <path d="M1188.74,401.82c-3.47,0-6.67-.64-9.6-1.93-2.93-1.29-5.47-3.02-7.62-5.2-2.15-2.18-3.83-4.72-5.02-7.62-1.2-2.9-1.79-5.99-1.79-9.28v-.18c0-3.29.6-6.4,1.79-9.33,1.2-2.93,2.87-5.5,5.02-7.71,2.15-2.21,4.71-3.96,7.67-5.25,2.96-1.29,6.2-1.93,9.73-1.93s6.68.64,9.64,1.93c2.96,1.29,5.52,3.02,7.67,5.2,2.15,2.18,3.83,4.72,5.02,7.62,1.2,2.9,1.79,6,1.79,9.28v.18c0,3.29-.61,6.4-1.84,9.33-1.23,2.93-2.91,5.5-5.07,7.71-2.15,2.21-4.72,3.96-7.71,5.25-2.99,1.28-6.22,1.93-9.69,1.93ZM1188.92,395.63c2.51,0,4.81-.48,6.91-1.43,2.09-.96,3.89-2.24,5.38-3.86,1.49-1.61,2.66-3.5,3.5-5.65.84-2.15,1.26-4.45,1.26-6.91v-.18c0-2.51-.43-4.86-1.3-7.04-.87-2.18-2.08-4.09-3.63-5.74-1.56-1.64-3.38-2.94-5.47-3.9-2.09-.96-4.36-1.44-6.82-1.44s-4.81.48-6.91,1.44c-2.09.96-3.87,2.24-5.34,3.86-1.47,1.62-2.62,3.51-3.45,5.7-.84,2.18-1.26,4.5-1.26,6.95v.18c0,2.51.43,4.86,1.3,7.04.87,2.18,2.06,4.08,3.59,5.69,1.52,1.61,3.33,2.9,5.43,3.86,2.09.96,4.36,1.43,6.82,1.43Z" style="fill: #1e1e1e;"/>
      <path d="M1225.51,354.37h6.91v9.33c.96-1.37,2.02-2.69,3.18-3.95,1.17-1.26,2.47-2.35,3.9-3.27,1.43-.93,3.03-1.67,4.8-2.24,1.76-.57,3.72-.85,5.87-.85,2.75,0,5.46.54,8.12,1.61,2.66,1.08,5.04,2.65,7.13,4.71,2.09,2.06,3.77,4.57,5.02,7.53,1.26,2.96,1.88,6.35,1.88,10.18v.18c0,3.77-.63,7.14-1.88,10.13-1.26,2.99-2.91,5.52-4.98,7.58-2.06,2.06-4.43,3.65-7.08,4.75-2.66,1.11-5.4,1.66-8.21,1.66-2.15,0-4.12-.27-5.92-.81-1.79-.54-3.41-1.26-4.84-2.15-1.44-.9-2.74-1.94-3.9-3.14-1.17-1.2-2.2-2.45-3.09-3.77v23.23h-6.91v-60.71ZM1248.92,395.54c2.21,0,4.32-.4,6.32-1.21,2-.81,3.74-1.97,5.2-3.5,1.46-1.52,2.63-3.39,3.5-5.6.87-2.21,1.3-4.72,1.3-7.53v-.18c0-2.75-.43-5.23-1.3-7.44-.87-2.21-2.05-4.09-3.54-5.65-1.5-1.55-3.23-2.75-5.2-3.59-1.97-.84-4.07-1.26-6.28-1.26s-4.23.43-6.23,1.3c-2,.87-3.8,2.09-5.38,3.68-1.58,1.58-2.84,3.47-3.77,5.65-.93,2.18-1.39,4.59-1.39,7.22v.18c0,2.69.46,5.14,1.39,7.35.93,2.21,2.18,4.1,3.77,5.65,1.58,1.55,3.38,2.77,5.38,3.63,2,.87,4.08,1.3,6.23,1.3Z" style="fill: #1e1e1e;"/>
      <path d="M1285.69,335.27h6.91v65.47h-6.91v-65.47Z" style="fill: #1e1e1e;"/>
      <path d="M1329.81,401.82c-3.47,0-6.67-.64-9.6-1.93-2.93-1.29-5.47-3.02-7.62-5.2-2.15-2.18-3.83-4.72-5.02-7.62-1.2-2.9-1.79-5.99-1.79-9.28v-.18c0-3.29.6-6.4,1.79-9.33,1.2-2.93,2.87-5.5,5.02-7.71,2.15-2.21,4.71-3.96,7.67-5.25,2.96-1.29,6.2-1.93,9.73-1.93s6.68.64,9.64,1.93c2.96,1.29,5.52,3.02,7.67,5.2,2.15,2.18,3.83,4.72,5.02,7.62,1.2,2.9,1.79,6,1.79,9.28v.18c0,3.29-.61,6.4-1.84,9.33-1.23,2.93-2.91,5.5-5.07,7.71-2.15,2.21-4.72,3.96-7.71,5.25-2.99,1.28-6.22,1.93-9.69,1.93ZM1329.99,395.63c2.51,0,4.81-.48,6.91-1.43,2.09-.96,3.89-2.24,5.38-3.86,1.49-1.61,2.66-3.5,3.5-5.65.84-2.15,1.26-4.45,1.26-6.91v-.18c0-2.51-.43-4.86-1.3-7.04-.87-2.18-2.08-4.09-3.63-5.74-1.56-1.64-3.38-2.94-5.47-3.9-2.09-.96-4.36-1.44-6.82-1.44s-4.81.48-6.91,1.44c-2.09.96-3.87,2.24-5.34,3.86-1.47,1.62-2.62,3.51-3.45,5.7-.84,2.18-1.26,4.5-1.26,6.95v.18c0,2.51.43,4.86,1.3,7.04.87,2.18,2.06,4.08,3.59,5.69,1.52,1.61,3.33,2.9,5.43,3.86,2.09.96,4.36,1.43,6.82,1.43Z" style="fill: #1e1e1e;"/>
      <path d="M1381.91,401.64c-3.35,0-6.73-.61-10.13-1.84-3.41-1.22-6.43-2.88-9.06-4.98l3.5-4.93c2.51,1.91,5.13,3.38,7.85,4.39,2.72,1.02,5.46,1.52,8.21,1.52s5.11-.66,6.91-1.97c1.79-1.31,2.69-3.11,2.69-5.38v-.18c0-1.13-.31-2.12-.94-2.96-.63-.84-1.48-1.57-2.56-2.2-1.08-.63-2.32-1.18-3.72-1.66-1.41-.48-2.86-.93-4.35-1.35-1.79-.54-3.6-1.12-5.43-1.75-1.82-.63-3.47-1.42-4.93-2.38-1.47-.96-2.66-2.15-3.59-3.59-.93-1.43-1.39-3.23-1.39-5.38v-.18c0-1.97.39-3.78,1.17-5.43.78-1.64,1.87-3.05,3.27-4.21,1.4-1.17,3.08-2.06,5.02-2.69,1.94-.63,4.05-.94,6.32-.94,2.87,0,5.77.46,8.7,1.39,2.93.93,5.59,2.17,7.98,3.72l-3.14,5.2c-2.15-1.37-4.41-2.47-6.77-3.27-2.36-.81-4.68-1.21-6.95-1.21-2.75,0-4.93.64-6.55,1.93-1.61,1.29-2.42,2.88-2.42,4.8v.18c0,1.08.33,2.02.99,2.82.66.81,1.54,1.51,2.65,2.11,1.11.6,2.38,1.14,3.81,1.61,1.44.48,2.93.96,4.48,1.43,1.79.54,3.57,1.14,5.34,1.79,1.76.66,3.36,1.5,4.8,2.51,1.44,1.02,2.59,2.24,3.45,3.68.87,1.44,1.3,3.2,1.3,5.29v.18c0,2.21-.43,4.17-1.3,5.87-.87,1.7-2.03,3.15-3.5,4.35-1.47,1.2-3.2,2.11-5.2,2.74-2,.63-4.17.94-6.5.94Z" style="fill: #1e1e1e;"/>
      <path d="M1426.57,401.64c-3.35,0-6.73-.61-10.13-1.84-3.41-1.22-6.43-2.88-9.06-4.98l3.5-4.93c2.51,1.91,5.13,3.38,7.85,4.39,2.72,1.02,5.46,1.52,8.21,1.52s5.11-.66,6.91-1.97c1.79-1.31,2.69-3.11,2.69-5.38v-.18c0-1.13-.31-2.12-.94-2.96-.63-.84-1.48-1.57-2.56-2.2-1.08-.63-2.32-1.18-3.72-1.66-1.41-.48-2.86-.93-4.35-1.35-1.79-.54-3.6-1.12-5.43-1.75-1.82-.63-3.47-1.42-4.93-2.38-1.47-.96-2.66-2.15-3.59-3.59-.93-1.43-1.39-3.23-1.39-5.38v-.18c0-1.97.39-3.78,1.17-5.43.78-1.64,1.87-3.05,3.27-4.21,1.4-1.17,3.08-2.06,5.02-2.69,1.94-.63,4.05-.94,6.32-.94,2.87,0,5.77.46,8.7,1.39,2.93.93,5.59,2.17,7.98,3.72l-3.14,5.2c-2.15-1.37-4.41-2.47-6.77-3.27-2.36-.81-4.68-1.21-6.95-1.21-2.75,0-4.93.64-6.55,1.93-1.61,1.29-2.42,2.88-2.42,4.8v.18c0,1.08.33,2.02.99,2.82.66.81,1.54,1.51,2.65,2.11,1.11.6,2.38,1.14,3.81,1.61,1.44.48,2.93.96,4.48,1.43,1.79.54,3.57,1.14,5.34,1.79,1.76.66,3.36,1.5,4.8,2.51,1.44,1.02,2.59,2.24,3.45,3.68.87,1.44,1.3,3.2,1.3,5.29v.18c0,2.21-.43,4.17-1.3,5.87-.87,1.7-2.03,3.15-3.5,4.35-1.47,1.2-3.2,2.11-5.2,2.74-2,.63-4.17.94-6.5.94Z" style="fill: #1e1e1e;"/>
      <path d="M1456.08,336.62h7.89v7.62h-7.89v-7.62ZM1456.53,354.37h6.91v46.37h-6.91v-46.37Z" style="fill: #1e1e1e;"/>
      <path d="M1479.48,354.37h6.91v8.07c1.55-2.51,3.59-4.65,6.1-6.41,2.51-1.76,5.77-2.65,9.78-2.65,2.81,0,5.31.45,7.49,1.34,2.18.9,4.04,2.17,5.56,3.81,1.52,1.65,2.69,3.6,3.5,5.87.81,2.27,1.21,4.78,1.21,7.53v28.79h-6.91v-27.03c0-4.29-1.11-7.7-3.32-10.2-2.21-2.5-5.38-3.76-9.51-3.76-1.97,0-3.81.34-5.52,1.03-1.7.69-3.18,1.67-4.44,2.95-1.26,1.28-2.23,2.82-2.91,4.61-.69,1.79-1.03,3.76-1.03,5.91v26.49h-6.91v-46.37Z" style="fill: #1e1e1e;"/>
      <path d="M1555.26,415.27c-3.89,0-7.59-.54-11.12-1.61-3.53-1.08-6.85-2.69-9.96-4.84l3.14-5.38c2.69,1.91,5.5,3.38,8.43,4.39,2.93,1.02,6.07,1.52,9.42,1.52,5.14,0,9.24-1.39,12.29-4.17,3.05-2.78,4.57-6.89,4.57-12.33v-5.47c-2.03,2.69-4.52,4.99-7.44,6.91-2.93,1.91-6.52,2.87-10.76,2.87-2.81,0-5.52-.51-8.12-1.53-2.6-1.02-4.92-2.47-6.95-4.35-2.03-1.88-3.66-4.15-4.89-6.82-1.23-2.66-1.84-5.66-1.84-9.01v-.18c0-3.41.61-6.46,1.84-9.15,1.22-2.69,2.85-4.98,4.89-6.86,2.03-1.88,4.36-3.33,7-4.35,2.63-1.02,5.32-1.52,8.07-1.52,2.15,0,4.14.25,5.96.76,1.82.51,3.47,1.18,4.93,2.02,1.46.84,2.79,1.83,3.99,2.96,1.2,1.14,2.27,2.33,3.23,3.59v-8.34h6.91v38.29c0,3.59-.51,6.74-1.52,9.46-1.02,2.72-2.48,5.04-4.39,6.95-2.09,2.09-4.63,3.65-7.62,4.66-2.99,1.02-6.34,1.52-10.04,1.52ZM1555.17,391.05c2.21,0,4.33-.37,6.37-1.12,2.03-.75,3.84-1.82,5.43-3.23,1.58-1.4,2.85-3.06,3.81-4.98.96-1.91,1.44-4.04,1.44-6.37v-.18c0-2.39-.48-4.54-1.44-6.46-.96-1.91-2.23-3.56-3.81-4.93-1.58-1.37-3.39-2.44-5.43-3.18-2.03-.75-4.16-1.12-6.37-1.12s-4.29.37-6.23,1.12c-1.94.75-3.65,1.79-5.11,3.14-1.47,1.35-2.62,2.98-3.45,4.89-.84,1.91-1.26,4.07-1.26,6.46v.18c0,2.33.43,4.47,1.3,6.41.87,1.94,2.03,3.6,3.5,4.98,1.46,1.38,3.17,2.45,5.11,3.23,1.94.78,3.99,1.17,6.14,1.17Z" style="fill: #1e1e1e;"/>
      <path d="M1598.4,380.38c.24,2.45.84,4.63,1.79,6.55.96,1.91,2.18,3.53,3.68,4.84,1.49,1.32,3.17,2.32,5.02,3,1.85.69,3.8,1.03,5.83,1.03,3.23,0,5.99-.6,8.3-1.79,2.3-1.2,4.41-2.78,6.32-4.75l4.3,3.86c-2.33,2.63-4.99,4.74-7.98,6.32-2.99,1.58-6.7,2.38-11.12,2.38-3.17,0-6.16-.58-8.97-1.75-2.81-1.17-5.26-2.81-7.35-4.93-2.09-2.12-3.75-4.68-4.98-7.67-1.23-2.99-1.84-6.28-1.84-9.87,0-3.35.55-6.5,1.66-9.46,1.11-2.96,2.65-5.53,4.62-7.71s4.32-3.9,7.04-5.16c2.72-1.26,5.69-1.88,8.92-1.88,3.41,0,6.46.64,9.15,1.93,2.69,1.29,4.96,3.04,6.82,5.25,1.85,2.21,3.26,4.81,4.21,7.8.96,2.99,1.44,6.19,1.44,9.6v1.03c0,.39-.03.85-.09,1.39h-36.77ZM1628.26,374.73c-.18-2.08-.63-4.06-1.35-5.93-.72-1.87-1.69-3.52-2.91-4.95-1.23-1.43-2.72-2.56-4.48-3.39-1.76-.83-3.78-1.25-6.05-1.25-1.97,0-3.83.39-5.56,1.16-1.73.77-3.26,1.86-4.57,3.26-1.32,1.4-2.41,3.05-3.27,4.95-.87,1.9-1.42,3.95-1.66,6.15h29.86Z" style="fill: #1e1e1e;"/>
      <path d="M1647.37,354.37h6.91v8.07c1.55-2.51,3.59-4.65,6.1-6.41,2.51-1.76,5.77-2.65,9.78-2.65,2.81,0,5.31.45,7.49,1.34,2.18.9,4.04,2.17,5.56,3.81,1.52,1.65,2.69,3.6,3.5,5.87.81,2.27,1.21,4.78,1.21,7.53v28.79h-6.91v-27.03c0-4.29-1.11-7.7-3.32-10.2-2.21-2.5-5.38-3.76-9.51-3.76-1.97,0-3.81.34-5.52,1.03-1.7.69-3.18,1.67-4.44,2.95-1.26,1.28-2.23,2.82-2.91,4.61-.69,1.79-1.03,3.76-1.03,5.91v26.49h-6.91v-46.37Z" style="fill: #1e1e1e;"/>
    </g>
  </g>
</svg>